# xmcd
#
# Track frame offsets: 
#        150
#        7710
#        21377
#        39220
#        47555
#        67067
#        79835
#        93550
#        104787
#        118375
#        131825
#        145217
#        158912
#        171482
#        180302
#        191597
#        202175
#        213307
#        222505
#        233577
#        244050
#        253067
#        269972
#        286200
#        307720
#
# Disc length: 4283 seconds
#
# Revision: 6
# Processed by: cddbd v1.5.2PL0 Copyright (c) Steve Scherf et al.
# Submitted via: ExactAudioCopy v0.95b2
#
DISCID=7b10b919
DTITLE=Various Artist - Columbia Country Classics Vol. 3 (Americana)
DYEAR=1990
DGENRE=Country
TTITLE0=Fess Parker - Ballad Of Davy Crockett
TTITLE1=Johnny Cash - Don't Take Your Guns To Town
TTITLE2=Marty Robbins - Big Iron
TTITLE3=Johnny Western - The Ballad Of Paladin
TTITLE4=Marty Robbins - El Paso
TTITLE5=Billy Walker - Cross The Brazos At Waco
TTITLE6=Lefty Frizzell - Long Black Veil
TTITLE7=Stonewall Jackson - Life To Go
TTITLE8=Jimmy Dean - Big Bad John
TTITLE9=Johnny Cash - Tennessee Flat Top Box
TTITLE10=Claude King - Wolverton Mountain
TTITLE11=Lefty Frizzell - Saginaw Michigan
TTITLE12=Johnny Horton - North To Alaska
TTITLE13=Hawkshaw Hawkins - Twenty Miles From Shore
TTITLE14=Johnny Horton - The Battle Of New Orleans
TTITLE15=Hawkshaw Hawkins - Soldier's Joy
TTITLE16=Stonewall Jackson - Waterloo
TTITLE17=Lester Flatt and Earl Scruggs - The Ballad Of Jed Clampett
TTITLE18=Jimmy Dickens - May The Bird Of Paradise Fly Up Your Nose
TTITLE19=Statler Brothers - Flowers On The Wall
TTITLE20=Tommy Collins - If You Can't Bite Don't Growl
TTITLE21=Johnny Cash - A Boy Named Sue
TTITLE22=Charlie Daniels - The Devil Went Down To Georgia
TTITLE23=Merle Haggard and Willie Nelson - Pancho And Lefty
TTITLE24=Johnny Cash (et al) - Highwayman
EXTD=CBS Records
EXTT0=Fess Parker
EXTT1=Johnny Cash
EXTT2=Marty Robbins
EXTT3=Johnny Western
EXTT4=Marty Robbins
EXTT5=
EXTT6=Lefty Frizzell
EXTT7=Stonewall Jackson
EXTT8=Jimmy Dean
EXTT9=Johnny Cash
EXTT10=Claude King
EXTT11=Lefty Frizzell
EXTT12=Johnny Horton
EXTT13=Hawkshaw Hawkins
EXTT14=Johnny Horton
EXTT15=Hawkshaw Hawkins
EXTT16=Stonewall Jackson
EXTT17=Lester Flatt, Earl Scruggs and The Foggy Mountian Boys
EXTT18="Little" Jimmy Dickens
EXTT19=The Statler Brothers
EXTT20=Tommy Collins
EXTT21=Johnny Cash
EXTT22=The Charlie Daniels Band
EXTT23=Merle Haggard and Willie Nelson
EXTT24=Waylon Jennings, Willie Nelson,\nJohnny Cash, Kris Kristofferso
EXTT24=n
PLAYORDER=
